<svg width="4320" height="4320" viewBox="0 0 4320 4320" fill="none" xmlns="http://www.w3.org/2000/svg">
<path d="M2160 0C967.032 0 0 967.032 0 2160C0 3119.79 626.508 3932.39 1492.56 4213.73H2827.44C3693.49 3932.39 4320 3119.79 4320 2160C4320 967.032 3352.97 0 2160 0Z" fill="url(#paint0_linear_131_11)"/>
<path opacity="0.05" d="M2809.08 4103.57L2808 3477.38C2808 3375.97 2784.24 3276.94 2738.66 3187.19C3347.89 3064.82 3644.35 2704.64 3644.35 2088.07C3644.35 1844.53 3572.53 1629.51 3430.94 1448.71C3441.74 1414.48 3449.74 1379.05 3454.7 1342.77C3475.01 1194.91 3452.22 1098.25 3433.86 1020.49L3430.94 1007.97C3410.86 921.998 3386.77 860.654 3385.8 858.062L3373.81 827.606L3361.82 797.15L3329.21 793.694L3296.48 790.238C3296.48 790.238 3274.99 787.97 3242.38 787.97C3197.12 787.97 3130.06 792.506 3066.66 813.998L3045.49 821.126C2965.57 848.018 2890.08 873.506 2784.46 936.578C2753.57 955.046 2719.76 976.106 2683.58 999.65C2520.07 959.15 2344.14 938.522 2160 938.522C1974.03 938.522 1796.58 959.258 1631.99 1000.19C1595.38 976.43 1561.36 955.154 1530.25 936.578C1424.63 873.506 1349.14 848.126 1269.22 821.126L1248.05 813.998C1184.87 792.506 1117.69 787.97 1072.44 787.97C1039.83 787.97 1018.33 790.238 1018.33 790.238L985.718 793.694L953.318 797.042L941.222 827.39L929.018 857.954C927.938 860.762 903.854 922.106 883.766 1008.18L880.85 1020.6C862.49 1098.25 839.702 1195.02 860.006 1342.77C865.19 1380.13 873.506 1416.75 884.846 1451.95C746.066 1631.88 675.758 1845.72 675.758 2088.07C675.758 2703.13 972.542 3063.1 1582.63 3186.43C1561.68 3228.34 1545.37 3272.62 1533.82 3318.62C1512.54 3325.86 1492.99 3330.72 1475.71 3333.42C1450.01 3337.31 1423.12 3339.25 1395.9 3339.25C1321.81 3339.25 1263.6 3324.78 1240.92 3311.28C1207.12 3291.19 1146.75 3232.76 1088.21 3147.34C1038.21 3074.44 960.23 2979.07 873.074 2939.22C797.69 2904.77 717.878 2885 653.942 2885C639.038 2885 625.322 2886.08 613.334 2888.03C557.498 2896.88 510.842 2927.56 485.462 2972.27C463.538 3010.82 460.082 3055.75 475.958 3095.5C499.61 3154.68 567.866 3201.88 621.002 3231.04C647.138 3245.4 703.622 3297.89 736.562 3350.81C761.294 3390.55 772.742 3418.85 788.618 3457.94C798.014 3481.16 808.382 3506.44 822.422 3537C873.182 3647.38 1031.62 3744.79 1049.55 3755.48C1136.59 3807.65 1282.93 3824.39 1390.5 3829.25L1403.79 3829.57H1403.89C1429.81 3829.57 1465.45 3827.09 1512.33 3821.9V4104.11C1512.54 4161.24 1454.33 4174.2 1377.33 4173.01L1436.4 4192.88C1662.66 4273.78 1905.66 4320 2160 4320C2414.34 4320 2657.34 4273.78 2883.92 4192.99L2959.85 4164.7C2883.06 4162.1 2809.73 4149.58 2809.08 4103.57Z" fill="black"/>
<path opacity="0.07" d="M2892.35 4190.08C2848.5 4195.15 2754 4178.3 2754 4104.22V3477.38C2754 3359.23 2718.57 3245.08 2652.91 3147.77C3291.73 3044.41 3590.24 2705.72 3590.24 2088.07C3590.24 1846.48 3516.15 1635.12 3370.03 1459.3C3384.82 1419.88 3395.19 1378.3 3401.13 1335.42C3420.03 1197.61 3399.4 1110.13 3381.26 1032.91L3378.34 1020.39C3359.12 938.198 3336.44 880.31 3335.47 877.934L3323.48 847.478L3290.76 844.022C3290.76 844.022 3271.53 841.97 3242.26 841.97C3201.12 841.97 3140.31 845.966 3083.94 865.19L3062.77 872.318C2985.66 898.346 2912.76 922.862 2812.1 982.91C2776.25 1004.29 2736.29 1029.46 2693.19 1057.86C2527.63 1014.55 2348.46 992.522 2160 992.522C1969.7 992.522 1789.02 1014.66 1622.27 1058.4C1578.74 1029.78 1538.57 1004.51 1502.49 982.91C1401.84 922.862 1328.94 898.238 1251.83 872.318L1230.66 865.19C1174.39 846.074 1113.48 841.97 1072.33 841.97C1043.06 841.97 1023.84 844.022 1023.84 844.022L991.222 847.478L979.018 878.042C978.046 880.418 955.366 938.306 936.142 1020.49L933.226 1033.02C914.974 1110.24 894.346 1197.61 913.354 1335.42C919.402 1379.38 930.202 1421.93 945.538 1462.21C802.223 1637.17 729.646 1847.45 729.646 2088.07C729.646 2704 1028.37 3042.58 1667.73 3147.12C1625.07 3210.84 1595.27 3282.66 1579.93 3359.23C1544.29 3373.27 1512 3382.56 1483.7 3386.88C1455.3 3391.2 1425.71 3393.36 1395.79 3393.36C1321.27 3393.36 1249.67 3379.43 1213.27 3357.83C1165.75 3329.64 1099.11 3259.12 1043.49 3178.01C1005.69 3122.93 930.418 3024.97 850.39 2988.47C781.81 2957.15 710.207 2939.11 653.723 2939.11C641.843 2939.11 631.043 2939.98 621.539 2941.49C582.011 2947.75 549.395 2968.7 532.115 2999.16C518.291 3023.35 516.023 3051.32 525.743 3075.62C545.075 3124.01 616.679 3167.42 646.595 3183.84C682.775 3203.71 745.847 3264.19 782.027 3322.51C809.135 3366.14 821.986 3397.79 838.294 3437.75C847.474 3460.32 857.518 3484.94 871.126 3514.64C906.874 3592.3 1017.25 3673.62 1076.87 3709.37C1158.3 3758.18 1309.5 3771.79 1392.44 3775.46L1404.43 3775.68C1436.72 3775.68 1490.83 3770.82 1565.89 3761.1V4104.22C1565.89 4188.35 1458.86 4191.7 1432.62 4191.7C1429.27 4191.7 1486.94 4211.57 1486.94 4211.57C1698.95 4281.12 1924.77 4320 2160 4320C2395.22 4320 2621.05 4281.12 2832.95 4211.68C2832.95 4211.68 2895.69 4189.64 2892.35 4190.08Z" fill="black"/>
<path d="M3536.35 2088.07C3536.35 1838.59 3451.9 1631.67 3307.72 1469.45C3323.38 1434.35 3339.69 1387.26 3347.79 1328.08C3366.36 1193.08 3344.44 1112.08 3325.86 1032.81C3307.29 953.533 3285.36 897.805 3285.36 897.805C3285.36 897.805 3185.79 887.653 3101.44 916.381C3017.09 945.109 2944.51 967.033 2839.86 1029.46C2790.94 1058.62 2741.69 1090.59 2702.7 1116.51C2536.06 1070.28 2352.78 1046.52 2160 1046.52C1965.5 1046.52 1780.6 1070.39 1612.77 1116.94C1573.67 1090.91 1524.1 1058.73 1474.85 1029.35C1370.2 966.925 1297.62 945.001 1213.28 916.273C1128.93 887.545 1029.35 897.697 1029.35 897.697C1029.35 897.697 1007.43 953.425 988.852 1032.7C970.276 1111.97 948.352 1192.97 966.928 1327.97C975.244 1388.67 992.092 1436.62 1008.18 1471.93C866.704 1633.18 783.76 1838.81 783.76 2087.96C783.76 2734.13 1132.82 3029.08 1768.83 3106.94C1694.63 3185.35 1644.84 3285.79 1628.1 3397.57C1586.31 3415.93 1538.14 3433.21 1491.81 3440.12C1372.58 3458.16 1246.54 3440.12 1185.84 3404.16C1125.15 3368.2 1053.11 3287.2 999.112 3208.36C953.536 3141.83 887.764 3064.61 828.148 3037.39C749.416 3001.43 672.844 2987.93 630.184 2994.62C587.416 3001.43 567.22 3032.86 576.184 3055.43C585.148 3077.89 627.916 3111.7 672.952 3136.43C717.988 3161.16 787.756 3228.66 828.256 3293.89C873.4 3366.68 882.256 3408.7 920.488 3491.86C947.38 3550.39 1039.4 3623.51 1104.95 3662.82C1161.22 3696.62 1273.65 3715.85 1395.26 3721.36C1437.27 3723.3 1536.52 3710.99 1620.22 3699.11V4104.11C1620.22 4173.12 1557.04 4225.61 1491.59 4213.51C1701.65 4284.14 1925.97 4320 2160 4320C2393.93 4320 2618.25 4284.14 2828.52 4213.73C2763.18 4225.72 2700 4173.23 2700 4104.22V3477.38C2700 3333.85 2643.09 3204.14 2551.72 3107.48C3183.09 3031.67 3536.35 2743.74 3536.35 2088.07Z" fill="white"/>
<defs>
<linearGradient id="paint0_linear_131_11" x1="0" y1="2106.86" x2="4320" y2="2106.86" gradientUnits="userSpaceOnUse">
<stop stop-color="#4C4C4C"/>
<stop offset="1" stop-color="#343434"/>
</linearGradient>
</defs>
</svg>
