<svg width="4321" height="4320" viewBox="0 0 4321 4320" fill="none" xmlns="http://www.w3.org/2000/svg">
<path d="M4320 2160C4320 3352.93 3352.94 4320 2160 4320V4320C967.067 4320 0.000997414 3352.93 0.00222779 2160V2160C0.00345816 967.063 967.068 0 2160 0V0C3352.94 0 4320 967.065 4320 2160V2160Z" fill="#0078D4"/>
<path opacity="0.05" d="M2717.54 3368V2429.57C2717.54 2272.62 2641.43 2178.86 2513.85 2178.86C2438.12 2178.86 2382.46 2221.52 2348.54 2305.61C2346.96 2311.56 2344.73 2335.81 2345.66 2409.13L2345.85 3368H1695.38V1602.46H2345.85V1701.05C2440.81 1635.54 2557.25 1602.46 2693.19 1602.46C3115.71 1602.46 3367.91 1889.87 3367.91 2371.31L3368 3368H2717.54ZM952 3368V1602.46H1273.24C1087.11 1602.46 952 1465.68 952 1277.14C952 1088.78 1089.34 952 1278.53 952C1465.49 952 1598.65 1084.97 1602.46 1275.28C1602.46 1465.21 1465.03 1602.46 1275.84 1602.46H1602.46V3368H952Z" fill="black"/>
<path opacity="0.07" d="M2764 3321.54V2429.57C2764 2246.23 2668.2 2132.4 2513.85 2132.4C2393.52 2132.4 2334.05 2217.15 2305.42 2288.23C2297.81 2306.73 2298.83 2380.13 2299.2 2411.45L2299.38 3321.54H1741.85V1648.92H2299.38V1801.13C2373.26 1724.66 2492.2 1648.92 2693.19 1648.92C3086.54 1648.92 3321.45 1918.96 3321.45 2371.31L3321.54 3321.54H2764ZM998.462 3321.54V1648.92H1556V3321.54H998.462ZM1273.24 1556C1114.06 1556 998.462 1438.73 998.462 1277.14C998.462 1115.64 1116.29 998.462 1278.53 998.462C1438.73 998.462 1552.75 1112.66 1556 1276.21C1556 1438.73 1438.17 1556 1275.84 1556H1273.24Z" fill="black"/>
<path d="M1044.92 1695.38H1509.54V3275.08H1044.92V1695.38ZM1275.84 1509.54H1273.24C1134.59 1509.54 1044.92 1406.21 1044.92 1277.14C1044.92 1145.28 1137.38 1044.92 1278.53 1044.92C1419.87 1044.92 1506.94 1145.28 1509.54 1277.14C1509.54 1406.12 1419.87 1509.54 1275.84 1509.54ZM3275.08 3275.08H2810.46V2429.57C2810.46 2225.33 2696.63 2085.94 2513.85 2085.94C2374.37 2085.94 2298.92 2179.98 2262.31 2270.86C2248.93 2303.38 2252.92 2393.33 2252.92 2438.77V3275.08H1788.31V1695.38H2252.92V1938.47C2319.92 1834.77 2424.83 1695.38 2693.19 1695.38C3025.67 1695.38 3274.98 1904.46 3274.98 2371.31L3275.08 3275.08Z" fill="white"/>
</svg>
