<svg width="4320" height="4320" viewBox="0 0 4320 4320" fill="none" xmlns="http://www.w3.org/2000/svg">
<path d="M4320 2160C4320 3352.93 3352.93 4320 2160.01 4320C967.069 4320 0 3352.93 0 2160C0 967.071 967.069 5.99602e-05 2160.01 5.99602e-05C3352.93 5.99602e-05 4320 967.071 4320 2160" fill="url(#paint0_linear_131_24)"/>
<path d="M831.312 3494.7L1019.03 2809.28C903.225 2608.67 842.321 2381.11 842.396 2148C842.696 1418.74 1436.25 825.396 2165.54 825.396C2519.48 825.546 2851.72 963.272 3101.47 1213.28C3351.32 1463.33 3488.8 1795.62 3488.65 2149.05C3488.35 2878.37 2894.81 3471.76 2165.59 3471.76C2165.54 3471.76 2165.62 3471.76 2165.59 3471.76H2165C1943.57 3471.71 1725.99 3416.12 1532.74 3310.79L831.312 3494.7" fill="url(#paint1_linear_131_24)"/>
<path d="M1543.89 3103.97L1585.51 3128.67C1760.38 3232.4 1960.87 3287.29 2165.32 3287.39H2165.77C2793.63 3287.39 3304.68 2776.48 3304.93 2148.6C3305.03 1844.25 3186.65 1558.16 2971.59 1342.9C2756.48 1127.64 2470.48 1009.06 2166.19 1008.91C1537.82 1008.91 1026.81 1519.76 1026.56 2147.65C1026.47 2362.81 1086.68 2572.37 1200.72 2753.69L1227.84 2796.78L1112.72 3217L1543.89 3103.97ZM783.651 3542.54L978.091 2832.57C858.163 2624.76 795.064 2389.05 795.159 2147.55C795.459 1392.14 1410.27 777.501 2165.77 777.501C2532.37 777.651 2876.51 920.325 3135.26 1179.33C3394.02 1438.28 3536.49 1782.57 3536.34 2148.65C3536.04 2904.11 2921.15 3518.8 2165.77 3518.8C2165.8 3518.8 2165.71 3518.8 2165.77 3518.8H2165.18C1935.8 3518.7 1710.41 3461.21 1510.22 3352.03L783.651 3542.54Z" fill="url(#paint2_linear_131_24)"/>
<path fill-rule="evenodd" clip-rule="evenodd" d="M1823.21 1574.81C1797.55 1517.77 1770.55 1516.62 1746.14 1515.62C1726.18 1514.77 1703.33 1514.82 1680.51 1514.82C1657.68 1514.82 1620.58 1523.42 1589.2 1557.66C1557.8 1591.95 1469.32 1674.79 1469.32 1843.26C1469.32 2011.78 1592.05 2174.6 1609.16 2197.44C1626.28 2220.29 1846.08 2577.12 2194.17 2714.4C2483.43 2828.48 2542.32 2805.78 2605.11 2800.03C2667.9 2794.33 2807.73 2717.25 2836.27 2637.26C2864.81 2557.32 2864.81 2488.79 2856.27 2474.44C2847.67 2460.19 2824.87 2451.59 2790.63 2434.5C2756.33 2417.35 2588.02 2334.52 2556.62 2323.07C2525.18 2311.67 2502.38 2305.97 2479.53 2340.22C2456.69 2374.51 2391.1 2451.59 2371.1 2474.44C2351.16 2497.34 2331.17 2500.19 2296.92 2483.04C2262.67 2465.89 2152.37 2429.75 2021.52 2313.07C1919.72 2222.34 1850.98 2110.21 1831 2075.96C1811.03 2041.67 1828.86 2023.12 1846.04 2006.08C1861.42 1990.73 1880.29 1966.08 1897.42 1946.09C1914.51 1926.09 1920.22 1911.84 1931.63 1889C1943.05 1866.1 1937.34 1846.11 1928.78 1829.01C1920.22 1811.86 1853.66 1642.49 1823.21 1574.81" fill="white"/>
<defs>
<linearGradient id="paint0_linear_131_24" x1="2160" y1="4320" x2="2160" y2="0.00978468" gradientUnits="userSpaceOnUse">
<stop stop-color="#20B038"/>
<stop offset="1" stop-color="#60D66A"/>
</linearGradient>
<linearGradient id="paint1_linear_131_24" x1="2160" y1="3494.7" x2="2160" y2="825.381" gradientUnits="userSpaceOnUse">
<stop stop-color="#20B038"/>
<stop offset="1" stop-color="#60D66A"/>
</linearGradient>
<linearGradient id="paint2_linear_131_24" x1="2160" y1="3542.54" x2="2160" y2="777.501" gradientUnits="userSpaceOnUse">
<stop stop-color="#F9F9F9"/>
<stop offset="1" stop-color="white"/>
</linearGradient>
</defs>
</svg>
