<svg width="15" height="31" viewBox="0 0 15 31" fill="none" xmlns="http://www.w3.org/2000/svg">
<path d="M2.12861 30.4852C1.63213 30.4862 1.15098 30.315 0.768693 30.0016C0.553532 29.825 0.375677 29.6082 0.245311 29.3635C0.114946 29.1189 0.0346339 28.8512 0.00897424 28.5758C-0.0166854 28.3003 0.0128121 28.0226 0.0957766 27.7585C0.178741 27.4943 0.313541 27.249 0.49246 27.0365L10.0119 15.7652L0.832441 4.47279C0.655936 4.25769 0.524127 4.0102 0.444589 3.74452C0.365052 3.47885 0.339354 3.20024 0.368973 2.9247C0.398592 2.64917 0.482942 2.38214 0.617179 2.13897C0.751415 1.8958 0.93289 1.68129 1.15117 1.50775C1.37102 1.31632 1.62848 1.17192 1.9074 1.08362C2.18632 0.995325 2.48066 0.965036 2.77197 0.994654C3.06327 1.02427 3.34525 1.11316 3.6002 1.25574C3.85514 1.39832 4.07756 1.59151 4.25348 1.82318L14.5166 14.4404C14.8291 14.8166 15 15.2886 15 15.7757C15 16.2628 14.8291 16.7347 14.5166 17.111L3.89226 29.7282C3.67909 29.9827 3.40831 30.1838 3.10189 30.3154C2.79546 30.4469 2.46202 30.5051 2.12861 30.4852Z" fill="white"/>
</svg>
