<svg width="15" height="30" viewBox="0 0 15 30" fill="none" xmlns="http://www.w3.org/2000/svg">
<path d="M12.8714 29.5016C13.3679 29.5025 13.849 29.3314 14.2313 29.0179C14.4465 28.8414 14.6243 28.6246 14.7547 28.3799C14.8851 28.1352 14.9654 27.8675 14.991 27.5921C15.0167 27.3167 14.9872 27.039 14.9042 26.7748C14.8213 26.5107 14.6865 26.2654 14.5075 26.0529L4.98811 14.7815L14.1676 3.48915C14.3441 3.27405 14.4759 3.02655 14.5554 2.76088C14.6349 2.4952 14.6606 2.21659 14.631 1.94106C14.6014 1.66552 14.5171 1.3985 14.3828 1.15533C14.2486 0.912162 14.0671 0.697646 13.8488 0.524112C13.629 0.332675 13.3715 0.188276 13.0926 0.0999792C12.8137 0.011682 12.5193 -0.0186071 12.228 0.0110115C11.9367 0.0406301 11.6548 0.129518 11.3998 0.272096C11.1449 0.414674 10.9224 0.607863 10.7465 0.839542L0.483381 13.4567C0.170851 13.833 -9.53674e-07 14.305 -9.53674e-07 14.792C-9.53674e-07 15.2791 0.170851 15.7511 0.483381 16.1274L11.1077 28.7445C11.3209 28.999 11.5917 29.2002 11.8981 29.3317C12.2045 29.4632 12.538 29.5214 12.8714 29.5016Z" fill="white"/>
</svg>
