<svg width="200" height="178" viewBox="0 0 200 178" fill="none" xmlns="http://www.w3.org/2000/svg">
<path fill-rule="evenodd" clip-rule="evenodd" d="M59.8909 0H140.208C147.248 0 153.793 3.75778 157.263 9.88889L197.323 79.1111C200.892 85.2422 200.892 92.7578 197.323 98.8889L157.263 168.111C153.694 174.242 147.149 178 140.109 178H59.8909C52.8508 178 46.3064 174.242 42.7368 168.111L2.67726 98.8889C-0.892399 92.7578 -0.892399 85.2422 2.67726 79.1111L42.7368 9.88889C46.3064 3.75778 52.8508 0 59.8909 0ZM138.462 119.083C138.462 114.987 135.141 111.667 131.045 111.667H61.2628C57.1667 111.667 53.8462 114.987 53.8462 119.083C53.8462 123.179 57.1667 126.5 61.2628 126.5H131.045C135.141 126.5 138.462 123.179 138.462 119.083ZM169.231 89C169.231 84.9039 165.91 81.5833 161.814 81.5833H38.1859C34.0898 81.5833 30.7692 84.9039 30.7692 89C30.7692 93.0961 34.0898 96.4167 38.1859 96.4167H161.814C165.91 96.4167 169.231 93.0961 169.231 89ZM146.154 56.9167C146.154 52.8206 142.833 49.5 138.737 49.5H68.9551C64.859 49.5 61.5385 52.8206 61.5385 56.9167C61.5385 61.0128 64.859 64.3333 68.9551 64.3333H138.737C142.833 64.3333 146.154 61.0128 146.154 56.9167Z" fill="url(#paint0_linear_151_7)"/>
<defs>
<linearGradient id="paint0_linear_151_7" x1="1.41412e-05" y1="89" x2="200" y2="89" gradientUnits="userSpaceOnUse">
<stop stop-color="#1BBC9B"/>
<stop offset="1" stop-color="#1BA49C"/>
</linearGradient>
</defs>
</svg>
