<svg width="90" height="90" viewBox="0 0 90 90" fill="none" xmlns="http://www.w3.org/2000/svg">
<circle cx="45" cy="45" r="45" fill="white"/>
<path fill-rule="evenodd" clip-rule="evenodd" d="M58.1394 10.3021L79.7245 31.8873C81.6165 33.7793 82.3654 36.548 81.6504 39.1284L73.8129 68.4977C73.1246 71.1048 71.1048 73.1246 68.4977 73.813L39.1284 81.6504C36.5214 82.3388 33.7527 81.5899 31.8606 79.6979L10.3021 58.1394C8.41011 56.2473 7.66122 53.4786 8.3496 50.8716L16.187 21.5023C16.8754 18.8952 18.8952 16.8754 21.5023 16.187L50.8716 8.34961C53.4786 7.66122 56.2473 8.41012 58.1394 10.3021ZM44.5641 66.1088C45.665 65.008 45.665 63.2232 44.5641 62.1224L25.8103 43.3686C24.7095 42.2677 22.9247 42.2677 21.8239 43.3686C20.7231 44.4694 20.7231 46.2542 21.8239 47.355L40.5777 66.1088C41.6785 67.2096 43.4633 67.2096 44.5641 66.1088ZM63.6056 63.6057C64.7065 62.5048 64.7065 60.72 63.6057 59.6192L30.3808 26.3943C29.2799 25.2935 27.4952 25.2935 26.3943 26.3943C25.2935 27.4952 25.2935 29.28 26.3943 30.3808L59.6192 63.6057C60.72 64.7065 62.5048 64.7065 63.6056 63.6057ZM68.7136 46.0939C69.8144 44.9931 69.8144 43.2083 68.7136 42.1075L49.9598 23.3537C48.859 22.2529 47.0742 22.2529 45.9733 23.3537C44.8725 24.4545 44.8725 26.2393 45.9733 27.3401L64.7272 46.0939C65.828 47.1948 67.6128 47.1948 68.7136 46.0939Z" fill="url(#paint0_linear_172_7)"/>
<defs>
<linearGradient id="paint0_linear_172_7" x1="18.1252" y1="18.1252" x2="71.8748" y2="71.8748" gradientUnits="userSpaceOnUse">
<stop stop-color="#1481B8"/>
<stop offset="1" stop-color="#1B6E98"/>
</linearGradient>
</defs>
</svg>
