<svg width="24" height="24" viewBox="0 0 24 24" fill="none" xmlns="http://www.w3.org/2000/svg">
<g clip-path="url(#clip0_642_5)">
<path fill-rule="evenodd" clip-rule="evenodd" d="M24 0H0V24H24V0ZM16.1269 9.42239C15.6522 9.42239 15.2674 9.80719 15.2674 10.2819C15.2674 10.7565 15.6522 11.1413 16.1269 11.1413H16.303C16.7777 11.1413 17.1625 10.7565 17.1625 10.2819C17.1625 9.80719 16.7777 9.42239 16.303 9.42239H16.1269ZM16.303 5.98451C16.7777 5.98451 17.1625 6.36931 17.1625 6.84398C17.1625 7.31866 16.7777 7.70345 16.303 7.70345H16.1269C15.6522 7.70345 15.2674 7.31866 15.2674 6.84398C15.2674 6.36931 15.6522 5.98451 16.1269 5.98451H16.303ZM11.8895 14.5792C11.4148 14.5792 11.03 14.1944 11.03 13.7197C11.03 13.2451 11.4148 12.8603 11.8895 12.8603H12.0606C12.5352 12.8603 12.92 13.2451 12.92 13.7197C12.92 14.1944 12.5352 14.5792 12.0606 14.5792H11.8895ZM12.0606 5.98451C12.5352 5.98451 12.92 6.36931 12.92 6.84398C12.92 7.31866 12.5352 7.70345 12.0606 7.70345H11.8895C11.4148 7.70345 11.03 7.31866 11.03 6.84398C11.03 6.36931 11.4148 5.98451 11.8895 5.98451H12.0606ZM11.8895 11.1413C11.4148 11.1413 11.03 10.7565 11.03 10.2819C11.03 9.80719 11.4148 9.42239 11.8895 9.42239H12.0606C12.5352 9.42239 12.92 9.80719 12.92 10.2819C12.92 10.7565 12.5352 11.1413 12.0606 11.1413H11.8895ZM7.82292 5.98451C8.29759 5.98451 8.68239 6.36931 8.68239 6.84398C8.68239 7.31866 8.29759 7.70345 7.82292 7.70345H7.64684C7.17217 7.70345 6.78737 7.31866 6.78737 6.84398C6.78737 6.36931 7.17217 5.98451 7.64684 5.98451H7.82292ZM7.82292 9.42239C8.29759 9.42239 8.68239 9.80719 8.68239 10.2819C8.68239 10.7565 8.29759 11.1413 7.82292 11.1413H7.64684C7.17217 11.1413 6.78737 10.7565 6.78737 10.2819C6.78737 9.80719 7.17217 9.42239 7.64684 9.42239H7.82292ZM12.92 19.736H13.9411C14.3447 20.3544 14.7908 20.9067 15.1668 21.3721C15.188 21.3983 15.209 21.4243 15.2297 21.4499H7.99734C5.23591 21.4499 2.99734 19.2114 2.99734 16.4499V7.54663C2.99734 4.78521 5.23591 2.54663 7.99734 2.54663H15.9525C18.7139 2.54663 20.9525 4.78521 20.9525 7.54663V11.6828C20.3745 11.4078 19.7302 11.2187 19.0575 11.1671V9.26557C19.0575 6.50415 16.8189 4.26557 14.0575 4.26557H9.89235C7.13093 4.26557 4.89235 6.50415 4.89235 9.26557V14.736C4.89235 17.4975 7.13093 19.736 9.89235 19.736H11.03V16.7279H12.92V19.736ZM7.64684 18.0171C7.17217 18.0171 6.78737 17.6323 6.78737 17.1576C6.78737 16.683 7.17217 16.2982 7.64684 16.2982H7.82292C8.29759 16.2982 8.68239 16.683 8.68239 17.1576C8.68239 17.6323 8.29759 18.0171 7.82292 18.0171H7.64684ZM7.82292 12.8603C8.29759 12.8603 8.68239 13.2451 8.68239 13.7197C8.68239 14.1944 8.29759 14.5792 7.82292 14.5792H7.64684C7.17217 14.5792 6.78737 14.1944 6.78737 13.7197C6.78737 13.2451 7.17217 12.8603 7.64684 12.8603H7.82292ZM17.6837 21.4499C17.6837 21.4499 21 18.103 21 15.8684C21 14.2354 19.484 12.8603 17.6837 12.8603C15.8835 12.8603 14.3674 14.2354 14.3674 15.8684C14.3674 18.103 17.6837 21.4499 17.6837 21.4499ZM17.6837 14.923C18.2522 14.923 18.8207 15.4387 18.8207 15.9544C18.9155 16.47 18.347 16.9857 17.6837 16.9857C17.0205 16.9857 16.5467 16.47 16.5467 15.9544C16.5467 15.3527 17.1152 14.923 17.6837 14.923Z" fill="white"/>
</g>
<defs>
<clipPath id="clip0_642_5">
<rect width="24" height="24" rx="8" fill="white"/>
</clipPath>
</defs>
</svg>
