<svg width="24" height="24" viewBox="0 0 24 24" fill="none" xmlns="http://www.w3.org/2000/svg">
<rect width="24" height="24" rx="8" fill="white"/>
<path d="M22 8.00022C22 4.68655 19.3138 2.00027 16.0001 2.00022L8.00013 2.00009C4.68639 2.00004 2.00004 4.68634 2.00004 8.00008L2.00002 16.0002C2.00001 19.3139 4.6863 22.0002 8.00002 22.0002H16C19.3137 22.0002 22 19.3139 22 16.0002V8.00022ZM20.4 16.4002C20.4 18.6094 18.6091 20.4002 16.4 20.4002H15.7975V14.2552H18.3975L18.7875 11.2377H15.7975V9.31024C15.7975 8.43524 16.04 7.84023 17.2925 7.84023H18.89V5.14023C18.6125 5.10273 17.665 5.02023 16.56 5.02023C14.255 5.02023 12.6775 6.42773 12.6775 9.01023V11.2352H10.0725V14.2527H12.68V20.4002H7.59999C5.39085 20.4002 3.59999 18.6094 3.59999 16.4002V7.60024C3.59999 5.3911 5.39085 3.60023 7.59999 3.60023H16.4C18.6091 3.60023 20.4 5.39109 20.4 7.60023V16.4002Z" fill="black"/>
</svg>
