<svg width="24" height="24" viewBox="0 0 24 24" fill="none" xmlns="http://www.w3.org/2000/svg">
<g clip-path="url(#clip0_642_15)">
<path fill-rule="evenodd" clip-rule="evenodd" d="M24 0H0V24H24V0ZM3.42857 5.52002H20.5714C20.9503 5.52002 21.3137 5.65654 21.5816 5.89956C21.8495 6.14257 22 6.47216 22 6.81584V17.1824C22 17.526 21.8495 17.8556 21.5816 18.0987C21.3137 18.3417 20.9503 18.4782 20.5714 18.4782H3.42857C3.04969 18.4782 2.68633 18.3417 2.41842 18.0987C2.15051 17.8556 2 17.526 2 17.1824V6.81584C2 6.47216 2.15051 6.14257 2.41842 5.89956C2.68633 5.65654 3.04969 5.52002 3.42857 5.52002ZM12 11.2087L19 6.81584H5L12 11.2087ZM3.42857 7.40543V17.1824H20.5714V7.40543L12.4071 12.5304C12.2876 12.6056 12.1455 12.6459 12 12.6459C11.8545 12.6459 11.7124 12.6056 11.5929 12.5304L3.42857 7.40543Z" fill="white"/>
</g>
<defs>
<clipPath id="clip0_642_15">
<rect width="24" height="24" rx="8" fill="white"/>
</clipPath>
</defs>
</svg>
