<svg width="24" height="24" viewBox="0 0 24 24" fill="none" xmlns="http://www.w3.org/2000/svg">
<g clip-path="url(#clip0_642_12)">
<path fill-rule="evenodd" clip-rule="evenodd" d="M24 0H0V24H24V0ZM2.45455 8.54904C2.45455 7.18689 2.77308 6.20915 3.28324 5.49549C3.79422 4.7807 4.52707 4.28938 5.4281 3.95326C7.25848 3.27046 9.6671 3.26455 12 3.26455C14.3329 3.26455 16.7415 3.27046 18.5719 3.95326C19.4729 4.28938 20.2058 4.7807 20.7168 5.49549C21.2269 6.20915 21.5455 7.18689 21.5455 8.54904C21.5455 9.34545 21.4627 9.88255 21.3402 10.2278C21.2191 10.5692 21.0808 10.6686 20.9963 10.7009C20.9004 10.7376 20.7382 10.7405 20.4757 10.6277C20.2174 10.5168 19.9195 10.3175 19.5991 10.0499C18.9605 9.51627 18.3096 8.77636 17.8107 8.15701C17.5633 7.84972 17.3569 7.57682 17.2127 7.38103C17.1407 7.28321 17.0843 7.20482 17.0461 7.15123C17.027 7.12445 17.0125 7.10387 17.0029 7.09018L16.9922 7.0749L16.9897 7.0713L16.9892 7.07053L16.9891 7.07046C16.9042 6.94782 16.7646 6.87463 16.6154 6.87463H7.38462C7.23545 6.87463 7.09578 6.94782 7.01088 7.07046L7.01083 7.07053L7.0103 7.0713L7.00779 7.0749L6.9971 7.09018C6.98749 7.10387 6.97299 7.12445 6.95391 7.15123C6.91574 7.20482 6.85932 7.28321 6.78727 7.38103C6.64305 7.57682 6.43675 7.84972 6.18926 8.15701C5.69043 8.77636 5.03946 9.51627 4.40085 10.0499C4.08054 10.3175 3.78262 10.5168 3.52432 10.6277C3.26175 10.7405 3.09963 10.7376 3.00373 10.7009C2.91917 10.6686 2.78089 10.5692 2.65975 10.2278C2.53728 9.88255 2.45455 9.34545 2.45455 8.54904ZM16.4808 7.92018C16.4435 7.86963 16.4102 7.82393 16.3811 7.78372H7.61889C7.58979 7.82393 7.55646 7.86963 7.51923 7.92018C7.36897 8.12418 7.1546 8.40775 6.89727 8.72724C6.38649 9.36144 5.69131 10.1563 4.98376 10.7475C4.631 11.0423 4.25585 11.3029 3.88313 11.463C3.51469 11.6213 3.08787 11.7064 2.67896 11.55C2.25872 11.3893 1.97632 11.0203 1.80299 10.5317C1.63099 10.0469 1.54545 9.39234 1.54545 8.54904C1.54545 7.04167 1.9 5.86726 2.54368 4.96682C3.18655 4.06751 4.08831 3.48276 5.11036 3.1015C7.11055 2.35536 9.67748 2.35541 11.947 2.35545L12 2.35545L12.053 2.35545C14.3225 2.35541 16.8895 2.35536 18.8896 3.1015C19.9117 3.48276 20.8134 4.06751 21.4563 4.96682C22.1 5.86726 22.4545 7.04167 22.4545 8.54904C22.4545 9.39234 22.369 10.0469 22.197 10.5317C22.0237 11.0203 21.7413 11.3893 21.321 11.55C20.9121 11.7064 20.4853 11.6213 20.1169 11.463C19.7442 11.3029 19.369 11.0423 19.0162 10.7475C18.3087 10.1563 17.6135 9.36144 17.1027 8.72724C16.8454 8.40775 16.631 8.12418 16.4808 7.92018ZM8.15385 8.5524C8.06046 8.5524 7.96934 8.58116 7.89288 8.63477L8.15385 9.00694C7.89288 8.63477 7.89275 8.63487 7.8926 8.63497L7.89224 8.63523L7.89127 8.63591L7.88836 8.63797L7.87871 8.64485L7.84454 8.66966C7.81532 8.69109 7.77346 8.7223 7.72031 8.7632C7.61402 8.84498 7.46251 8.96559 7.27677 9.12428C6.90546 9.44151 6.39632 9.9118 5.83781 10.5293C4.72217 11.7629 3.4005 13.5939 2.59447 15.9749C2.13305 17.338 2.47233 18.6474 3.27213 19.6299C4.06569 20.6047 5.31072 21.2604 6.69046 21.3734C8.43102 21.5161 10.3985 21.6396 12 21.6396C13.6015 21.6396 15.569 21.5161 17.3095 21.3734C18.6893 21.2604 19.9343 20.6047 20.7279 19.6299C21.5277 18.6474 21.8669 17.338 21.4055 15.9749C20.5995 13.5939 19.2778 11.7629 18.1622 10.5293C17.6037 9.9118 17.0945 9.44151 16.7232 9.12428C16.5375 8.96559 16.386 8.84498 16.2797 8.7632C16.2265 8.7223 16.1847 8.69109 16.1555 8.66966L16.1213 8.64485L16.1116 8.63797L16.1087 8.63591L16.1078 8.63523L16.1074 8.63497C16.1073 8.63487 16.1071 8.63477 15.8462 9.00694L16.1071 8.63477C16.0307 8.58116 15.9395 8.5524 15.8462 8.5524H8.15385ZM8.27471 9.48368L8.30369 9.46149H15.6963L15.7253 9.48368C15.8202 9.55671 15.9596 9.66757 16.1327 9.81546C16.4791 10.1114 16.9594 10.5547 17.488 11.1391C18.5464 12.3094 19.7891 14.0352 20.5444 16.2664C20.8955 17.3034 20.6461 18.2903 20.0228 19.056C19.3933 19.8293 18.3809 20.3735 17.2353 20.4674C15.5018 20.6094 13.5638 20.7305 12 20.7305C10.4362 20.7305 8.49817 20.6094 6.7647 20.4674C5.61915 20.3735 4.60668 19.8293 3.97716 19.056C3.35389 18.2903 3.10453 17.3034 3.45556 16.2664C4.21087 14.0352 5.45361 12.3094 6.51205 11.1391C7.04058 10.5547 7.5209 10.1114 7.86729 9.81546C8.0404 9.66757 8.17979 9.55671 8.27471 9.48368ZM9.1776 14.7457C9.1776 13.1954 10.542 11.9214 12 11.9214C13.4579 11.9214 14.8224 13.1954 14.8224 14.7457C14.8224 16.296 13.4579 17.5701 12 17.5701C10.542 17.5701 9.1776 16.296 9.1776 14.7457ZM12 11.0123C10.0593 11.0123 8.26851 12.6742 8.26851 14.7457C8.26851 16.8172 10.0593 18.4792 12 18.4792C13.9407 18.4792 15.7314 16.8172 15.7314 14.7457C15.7314 12.6742 13.9407 11.0123 12 11.0123Z" fill="white"/>
</g>
<defs>
<clipPath id="clip0_642_12">
<rect width="24" height="24" rx="8" fill="white"/>
</clipPath>
</defs>
</svg>
