<svg width="24" height="24" viewBox="0 0 24 24" fill="none" xmlns="http://www.w3.org/2000/svg">
<rect width="24" height="24" rx="8" fill="white"/>
<path d="M21 4.50889C21 4.50889 19.3489 5.50535 18.4309 5.7879C17.9382 5.20901 17.2833 4.79871 16.5548 4.61249C15.8264 4.42627 15.0596 4.47311 14.3581 4.74668C13.6565 5.02025 13.0542 5.50735 12.6324 6.1421C12.2107 6.77685 11.9899 7.52862 12 8.29574V9.13169C10.5622 9.16978 9.13741 8.84397 7.85264 8.18326C6.56788 7.52256 5.46299 6.54747 4.63636 5.34484C4.63636 5.34484 1.36364 12.8684 8.72727 16.2122C7.04225 17.3808 5.03495 17.9668 3 17.8841C10.3636 22.0638 19.3636 17.8841 19.3636 8.27066C19.3636 8.03827 19.3407 7.80588 19.2982 7.57683C20.1327 6.73586 21 4.50889 21 4.50889Z" stroke="black" stroke-width="1.25" stroke-linecap="round" stroke-linejoin="round"/>
</svg>
