<svg width="27" height="27" viewBox="0 0 27 27" fill="none" xmlns="http://www.w3.org/2000/svg">
<path d="M2.25 7.875C2.25 7.27826 2.48705 6.70597 2.90901 6.28401C3.33097 5.86205 3.90326 5.625 4.5 5.625H22.5C23.0967 5.625 23.669 5.86205 24.091 6.28401C24.5129 6.70597 24.75 7.27826 24.75 7.875V19.125C24.75 19.7217 24.5129 20.294 24.091 20.716C23.669 21.1379 23.0967 21.375 22.5 21.375H4.5C3.90326 21.375 3.33097 21.1379 2.90901 20.716C2.48705 20.294 2.25 19.7217 2.25 19.125V7.875Z" stroke="#007D98" stroke-width="2" stroke-linecap="round" stroke-linejoin="round"/>
<path d="M13.5 16.875C15.364 16.875 16.875 15.364 16.875 13.5C16.875 11.636 15.364 10.125 13.5 10.125C11.636 10.125 10.125 11.636 10.125 13.5C10.125 15.364 11.636 16.875 13.5 16.875Z" stroke="#007D98" stroke-width="2" stroke-linecap="round" stroke-linejoin="round"/>
<path d="M2.25 10.125C3.44347 10.125 4.58807 9.65089 5.43198 8.80698C6.2759 7.96307 6.75 6.81847 6.75 5.625" stroke="#007D98" stroke-width="2" stroke-linecap="round" stroke-linejoin="round"/>
<path d="M20.25 21.375C20.25 20.1815 20.7241 19.0369 21.568 18.193C22.4119 17.3491 23.5565 16.875 24.75 16.875" stroke="#007D98" stroke-width="2" stroke-linecap="round" stroke-linejoin="round"/>
</svg>
