<svg width="25" height="25" viewBox="0 0 25 25" fill="none" xmlns="http://www.w3.org/2000/svg">
<path d="M20.05 5C20.375 5 20.6838 5.065 20.9763 5.195C21.27 5.325 21.53 5.505 21.7575 5.7325C21.9863 5.96 22.165 6.22 22.295 6.51375C22.425 6.80625 22.4938 7.11875 22.5 7.45125V13.75C22.5 14.1925 22.39 14.61 22.1675 15C21.952 15.3845 21.6345 15.702 21.25 15.9175V18.125C21.2489 18.4945 21.139 18.8555 20.9341 19.1629C20.7291 19.4703 20.4381 19.7106 20.0975 19.8538C19.8637 19.9575 19.6225 20.0062 19.375 20H14.375C14.2929 20.0009 14.2115 19.985 14.1358 19.9531C14.0601 19.9213 13.9918 19.8743 13.935 19.815L12.5 18.3788L11.065 19.815C11.0082 19.8743 10.9399 19.9213 10.8642 19.9531C10.7885 19.985 10.7071 20.0009 10.625 20H5.625C5.25551 19.9989 4.89453 19.889 4.58709 19.6841C4.27965 19.4791 4.03938 19.1881 3.89625 18.8475C3.79372 18.6208 3.74373 18.3738 3.75 18.125V15.9175C3.36934 15.6999 3.05516 15.3827 2.84125 15C2.62281 14.6192 2.50534 14.1889 2.5 13.75V7.45C2.5 7.125 2.565 6.81625 2.695 6.52375C2.82426 6.2323 3.00651 5.9674 3.2325 5.7425C3.4574 5.51651 3.7223 5.33426 4.01375 5.205C4.30888 5.07441 4.62731 5.00469 4.95 5H20.0475H20.05ZM21.25 7.5C21.251 7.33538 21.2178 7.17235 21.1525 7.02125C21.0886 6.87355 20.9993 6.73817 20.8888 6.62125C20.7763 6.50268 20.64 6.40936 20.4888 6.3475C20.334 6.28272 20.1678 6.24957 20 6.25H5C4.83666 6.24811 4.67463 6.27925 4.52362 6.34154C4.37261 6.40384 4.23575 6.496 4.12125 6.6125C4.00683 6.7284 3.91411 6.86388 3.8475 7.0125C3.77677 7.16496 3.74335 7.33206 3.75 7.5V13.75C3.75 13.925 3.7825 14.0875 3.8475 14.2375C3.9125 14.3875 4.00125 14.5213 4.11125 14.6375C4.22018 14.754 4.35388 14.8446 4.5025 14.9025C4.6525 14.9612 4.8175 14.9938 5 15H20C20.1633 15.002 20.3254 14.9709 20.4764 14.9086C20.6274 14.8463 20.7643 14.7541 20.8787 14.6375C20.99 14.5275 21.0813 14.395 21.1525 14.2375C21.2232 14.085 21.2567 13.9179 21.25 13.75V7.5ZM18.75 7.5C18.9146 7.49896 19.0777 7.53217 19.2288 7.5975C19.3788 7.6625 19.5113 7.75125 19.6288 7.86125C19.7473 7.97367 19.8406 8.11002 19.9025 8.26125C19.9675 8.4175 20 8.58125 20 8.75V12.5C20.002 12.6633 19.9709 12.8254 19.9086 12.9764C19.8463 13.1274 19.7541 13.2643 19.6375 13.3788C19.5216 13.4932 19.3862 13.5859 19.2375 13.6525C19.085 13.7232 18.9179 13.7567 18.75 13.75H6.25C6.08251 13.7516 5.91651 13.7184 5.7625 13.6525C5.6148 13.5886 5.47942 13.4993 5.3625 13.3888C5.24595 13.2799 5.15538 13.1461 5.0975 12.9975C5.03713 12.8384 5.00416 12.6702 5 12.5V8.75C4.99811 8.58666 5.02925 8.42463 5.09154 8.27362C5.15384 8.12261 5.246 7.98575 5.3625 7.87125C5.4784 7.75683 5.61388 7.66411 5.7625 7.5975C5.91496 7.52677 6.08206 7.49335 6.25 7.5H18.75ZM9.375 8.75H6.25V12.5H9.375V8.75ZM14.375 12.5V8.75H10.625V12.5H14.375ZM15.625 12.5H18.75V8.75H15.625V12.5ZM20 16.25H5V18.125C5 18.2938 5.0625 18.4413 5.185 18.565C5.24178 18.6243 5.31013 18.6713 5.38581 18.7031C5.4615 18.735 5.5429 18.7509 5.625 18.75H10.3712L12.06 17.06C12.1168 17.0007 12.1851 16.9537 12.2608 16.9219C12.3365 16.89 12.4179 16.8741 12.5 16.875C12.5821 16.8741 12.6635 16.89 12.7392 16.9219C12.8149 16.9537 12.8832 17.0007 12.94 17.06L14.6375 18.75H19.375C19.4571 18.7509 19.5385 18.735 19.6142 18.7031C19.6899 18.6713 19.7582 18.6243 19.815 18.565C19.8743 18.5082 19.9213 18.4399 19.9531 18.3642C19.985 18.2885 20.0009 18.2071 20 18.125V16.25Z" fill="black"/>
</svg>
