<svg width="200" height="178" viewBox="0 0 200 178" fill="none" xmlns="http://www.w3.org/2000/svg">
<mask id="path-1-inside-1_156_12" fill="white">
<path fill-rule="evenodd" clip-rule="evenodd" d="M59.8909 0H140.208C147.248 0 153.793 3.75778 157.263 9.88889L197.323 79.1111C200.892 85.2422 200.892 92.7578 197.323 98.8889L157.263 168.111C153.694 174.242 147.149 178 140.109 178H59.8909C52.8508 178 46.3064 174.242 42.7368 168.111L2.67726 98.8889C-0.892399 92.7578 -0.892399 85.2422 2.67726 79.1111L42.7368 9.88889C46.3064 3.75778 52.8508 0 59.8909 0ZM138.462 119.083C138.462 114.987 135.141 111.667 131.045 111.667H61.2628C57.1667 111.667 53.8462 114.987 53.8462 119.083C53.8462 123.179 57.1667 126.5 61.2628 126.5H131.045C135.141 126.5 138.462 123.179 138.462 119.083ZM169.231 89C169.231 84.9039 165.91 81.5833 161.814 81.5833H38.1859C34.0898 81.5833 30.7692 84.9039 30.7692 89C30.7692 93.0961 34.0898 96.4167 38.1859 96.4167H161.814C165.91 96.4167 169.231 93.0961 169.231 89ZM146.154 56.9167C146.154 52.8206 142.833 49.5 138.737 49.5H68.9551C64.859 49.5 61.5385 52.8206 61.5385 56.9167C61.5385 61.0128 64.859 64.3333 68.9551 64.3333H138.737C142.833 64.3333 146.154 61.0128 146.154 56.9167Z"/>
</mask>
<path fill-rule="evenodd" clip-rule="evenodd" d="M59.8909 0H140.208C147.248 0 153.793 3.75778 157.263 9.88889L197.323 79.1111C200.892 85.2422 200.892 92.7578 197.323 98.8889L157.263 168.111C153.694 174.242 147.149 178 140.109 178H59.8909C52.8508 178 46.3064 174.242 42.7368 168.111L2.67726 98.8889C-0.892399 92.7578 -0.892399 85.2422 2.67726 79.1111L42.7368 9.88889C46.3064 3.75778 52.8508 0 59.8909 0ZM138.462 119.083C138.462 114.987 135.141 111.667 131.045 111.667H61.2628C57.1667 111.667 53.8462 114.987 53.8462 119.083C53.8462 123.179 57.1667 126.5 61.2628 126.5H131.045C135.141 126.5 138.462 123.179 138.462 119.083ZM169.231 89C169.231 84.9039 165.91 81.5833 161.814 81.5833H38.1859C34.0898 81.5833 30.7692 84.9039 30.7692 89C30.7692 93.0961 34.0898 96.4167 38.1859 96.4167H161.814C165.91 96.4167 169.231 93.0961 169.231 89ZM146.154 56.9167C146.154 52.8206 142.833 49.5 138.737 49.5H68.9551C64.859 49.5 61.5385 52.8206 61.5385 56.9167C61.5385 61.0128 64.859 64.3333 68.9551 64.3333H138.737C142.833 64.3333 146.154 61.0128 146.154 56.9167Z" fill="url(#paint0_linear_156_12)"/>
<path d="M157.263 9.88889L152.912 12.3519L152.924 12.3727L152.936 12.3933L157.263 9.88889ZM197.323 79.1111L192.995 81.6155L193.002 81.6269L197.323 79.1111ZM197.323 98.8889L193.002 96.3731L192.995 96.3845L197.323 98.8889ZM157.263 168.111L161.584 170.627L161.591 170.616L157.263 168.111ZM42.7368 168.111L38.4092 170.616L38.4158 170.627L42.7368 168.111ZM2.67726 98.8889L7.00485 96.3845L6.99824 96.3731L2.67726 98.8889ZM2.67726 79.1111L6.99826 81.6269L7.00484 81.6155L2.67726 79.1111ZM42.7368 9.88889L38.4158 7.37312L38.4092 7.38448L42.7368 9.88889ZM140.208 -5H59.8909V5H140.208V-5ZM161.615 7.42587C157.243 -0.296992 149.022 -5 140.208 -5V5C145.475 5 150.343 7.81255 152.912 12.3519L161.615 7.42587ZM201.65 76.6067L161.591 7.38448L152.936 12.3933L192.995 81.6155L201.65 76.6067ZM201.644 101.405C206.119 93.7185 206.119 84.2815 201.644 76.5953L193.002 81.6269C195.666 86.203 195.666 91.797 193.002 96.3731L201.644 101.405ZM161.591 170.616L201.65 101.393L192.995 96.3845L152.936 165.607L161.591 170.616ZM140.109 183C148.934 183 157.122 178.292 161.584 170.627L152.942 165.595C150.265 170.193 145.364 173 140.109 173V183ZM59.8909 183H140.109V173H59.8909V183ZM38.4158 170.627C42.8783 178.292 51.0657 183 59.8909 183V173C54.6359 173 49.7345 170.193 47.0577 165.595L38.4158 170.627ZM-1.65032 101.393L38.4092 170.616L47.0643 165.607L7.00484 96.3845L-1.65032 101.393ZM-1.64373 76.5953C-6.11874 84.2815 -6.11874 93.7185 -1.64373 101.405L6.99824 96.3731C4.33394 91.797 4.33394 86.203 6.99824 81.6269L-1.64373 76.5953ZM38.4092 7.38448L-1.65032 76.6067L7.00484 81.6155L47.0643 12.3933L38.4092 7.38448ZM59.8909 -5C51.0656 -5 42.8783 -0.291503 38.4158 7.37312L47.0577 12.4047C49.7346 7.80706 54.6359 5 59.8909 5V-5ZM131.045 116.667C132.38 116.667 133.462 117.749 133.462 119.083H143.462C143.462 112.226 137.902 106.667 131.045 106.667V116.667ZM61.2628 116.667H131.045V106.667H61.2628V116.667ZM58.8462 119.083C58.8462 117.749 59.9281 116.667 61.2628 116.667V106.667C54.4053 106.667 48.8462 112.226 48.8462 119.083H58.8462ZM61.2628 121.5C59.9281 121.5 58.8462 120.418 58.8462 119.083H48.8462C48.8462 125.941 54.4053 131.5 61.2628 131.5V121.5ZM131.045 121.5H61.2628V131.5H131.045V121.5ZM133.462 119.083C133.462 120.418 132.38 121.5 131.045 121.5V131.5C137.902 131.5 143.462 125.941 143.462 119.083H133.462ZM161.814 86.5833C163.149 86.5833 164.231 87.6653 164.231 89H174.231C174.231 82.1425 168.672 76.5833 161.814 76.5833V86.5833ZM38.1859 86.5833H161.814V76.5833H38.1859V86.5833ZM35.7692 89C35.7692 87.6653 36.8512 86.5833 38.1859 86.5833V76.5833C31.3284 76.5833 25.7692 82.1425 25.7692 89H35.7692ZM38.1859 91.4167C36.8512 91.4167 35.7692 90.3347 35.7692 89H25.7692C25.7692 95.8575 31.3284 101.417 38.1859 101.417V91.4167ZM161.814 91.4167H38.1859V101.417H161.814V91.4167ZM164.231 89C164.231 90.3347 163.149 91.4167 161.814 91.4167V101.417C168.672 101.417 174.231 95.8575 174.231 89H164.231ZM138.737 54.5C140.072 54.5 141.154 55.582 141.154 56.9167H151.154C151.154 50.0591 145.595 44.5 138.737 44.5V54.5ZM68.9551 54.5H138.737V44.5H68.9551V54.5ZM66.5385 56.9167C66.5385 55.582 67.6204 54.5 68.9551 54.5V44.5C62.0976 44.5 56.5385 50.0591 56.5385 56.9167H66.5385ZM68.9551 59.3333C67.6204 59.3333 66.5385 58.2514 66.5385 56.9167H56.5385C56.5385 63.7742 62.0976 69.3333 68.9551 69.3333V59.3333ZM138.737 59.3333H68.9551V69.3333H138.737V59.3333ZM141.154 56.9167C141.154 58.2514 140.072 59.3333 138.737 59.3333V69.3333C145.595 69.3333 151.154 63.7742 151.154 56.9167H141.154Z" fill="white" mask="url(#path-1-inside-1_156_12)"/>
<defs>
<linearGradient id="paint0_linear_156_12" x1="2.94e-05" y1="89" x2="200" y2="89" gradientUnits="userSpaceOnUse">
<stop stop-color="#1BBC9B"/>
<stop offset="1" stop-color="#1BA49C"/>
</linearGradient>
</defs>
</svg>
