<svg width="25" height="25" viewBox="0 0 25 25" fill="none" xmlns="http://www.w3.org/2000/svg">
<path d="M8.59375 3.125V4.6875M4.6875 8.59375H3.125M21.875 8.59375H20.3125M4.6875 12.5H3.125M21.875 12.5H20.3125M4.6875 16.4062H3.125M21.875 16.4062H20.3125M8.59375 20.3125V21.875M12.5 3.125V4.6875M12.5 20.3125V21.875M16.4062 3.125V4.6875M16.4062 20.3125V21.875M7.03125 20.3125H17.9687C18.5904 20.3125 19.1865 20.0656 19.626 19.626C20.0656 19.1865 20.3125 18.5904 20.3125 17.9687V7.03125C20.3125 6.40965 20.0656 5.81351 19.626 5.37397C19.1865 4.93443 18.5904 4.6875 17.9687 4.6875H7.03125C6.40965 4.6875 5.81351 4.93443 5.37397 5.37397C4.93443 5.81351 4.6875 6.40965 4.6875 7.03125V17.9687C4.6875 18.5904 4.93443 19.1865 5.37397 19.626C5.81351 20.0656 6.40965 20.3125 7.03125 20.3125ZM7.8125 7.8125H17.1875V17.1875H7.8125V7.8125Z" stroke="black" stroke-width="1.5625" stroke-linecap="round" stroke-linejoin="round"/>
</svg>
