<svg width="25" height="25" viewBox="0 0 25 25" fill="none" xmlns="http://www.w3.org/2000/svg">
<g clip-path="url(#clip0_653_180)">
<path d="M22.2222 4.16675H2.7778C2.40945 4.16675 2.05618 4.31308 1.79571 4.57354C1.53524 4.83401 1.38892 5.18728 1.38892 5.55564V19.4445C1.38892 19.8129 1.53524 20.1662 1.79571 20.4266C2.05618 20.6871 2.40945 20.8334 2.7778 20.8334H22.2222C22.5906 20.8334 22.9439 20.6871 23.2043 20.4266C23.4648 20.1662 23.6111 19.8129 23.6111 19.4445V5.55564C23.6111 5.18728 23.4648 4.83401 23.2043 4.57354C22.9439 4.31308 22.5906 4.16675 22.2222 4.16675V4.16675ZM22.2222 19.4445H2.7778V5.55564H22.2222V19.4445Z" fill="black"/>
<path d="M4.31239 7.98611C4.79181 7.98611 5.18045 7.59747 5.18045 7.11806C5.18045 6.63864 4.79181 6.25 4.31239 6.25C3.83298 6.25 3.44434 6.63864 3.44434 7.11806C3.44434 7.59747 3.83298 7.98611 4.31239 7.98611Z" fill="black"/>
<path d="M20.7013 7.98611C21.1807 7.98611 21.5694 7.59747 21.5694 7.11806C21.5694 6.63864 21.1807 6.25 20.7013 6.25C20.2219 6.25 19.8333 6.63864 19.8333 7.11806C19.8333 7.59747 20.2219 7.98611 20.7013 7.98611Z" fill="black"/>
<path d="M4.31239 18.5208C4.79181 18.5208 5.18045 18.1321 5.18045 17.6527C5.18045 17.1733 4.79181 16.7847 4.31239 16.7847C3.83298 16.7847 3.44434 17.1733 3.44434 17.6527C3.44434 18.1321 3.83298 18.5208 4.31239 18.5208Z" fill="black"/>
<path d="M20.7013 18.5208C21.1807 18.5208 21.5694 18.1321 21.5694 17.6527C21.5694 17.1733 21.1807 16.7847 20.7013 16.7847C20.2219 16.7847 19.8333 17.1733 19.8333 17.6527C19.8333 18.1321 20.2219 18.5208 20.7013 18.5208Z" fill="black"/>
<path d="M6.9445 12.9307C7.86117 13.1459 8.27089 13.3057 8.27089 13.7779C8.27089 14.2501 7.90283 14.5348 7.1945 14.5348C6.4923 14.525 5.81988 14.2496 5.31255 13.764L4.71533 14.5001C5.3777 15.1171 6.25482 15.451 7.15978 15.4307C8.54867 15.4307 9.31255 14.7362 9.31255 13.6807C9.31255 12.6251 8.51394 12.2571 7.3195 11.9862C6.40978 11.7779 5.98617 11.6112 5.98617 11.1459C6.02058 10.924 6.13964 10.7241 6.31834 10.5882C6.49703 10.4522 6.72147 10.3908 6.9445 10.4168C7.55879 10.4427 8.14312 10.6893 8.59033 11.1112L9.15283 10.3473C8.55193 9.79406 7.7612 9.49318 6.9445 9.50705C5.73617 9.50705 4.86117 10.2362 4.86117 11.2362C4.86117 12.2362 5.73617 12.6529 6.9445 12.9307Z" fill="black"/>
<path d="M12.382 14.5346C11.6798 14.5248 11.0074 14.2494 10.5001 13.7638L9.90283 14.4999C10.5652 15.1168 11.4423 15.4507 12.3473 15.4304C13.7362 15.4304 14.5001 14.736 14.5001 13.6804C14.5001 12.6249 13.7014 12.2568 12.5001 11.986C11.5903 11.7777 11.1667 11.611 11.1667 11.1457C11.2011 10.9211 11.3222 10.7189 11.5039 10.5826C11.6857 10.4463 11.9137 10.3867 12.1389 10.4165C12.7532 10.4425 13.3376 10.6891 13.7848 11.111L14.3473 10.3471C13.7513 9.81767 12.9776 9.53249 12.1806 9.54849C10.9792 9.54849 10.0973 10.2777 10.0973 11.2777C10.0973 12.2777 10.9237 12.6665 12.1042 12.9721C13.0209 13.1874 13.4306 13.3471 13.4306 13.8193C13.4306 14.2915 13.0903 14.5346 12.382 14.5346V14.5346Z" fill="black"/>
<path d="M20.7639 12.5C20.7639 10.8264 19.4306 9.63892 17.5417 9.63892H15.5278V15.3611H17.5417C19.4445 15.3334 20.7639 14.1459 20.7639 12.5ZM16.5973 10.5834H17.6806C17.9425 10.5676 18.2048 10.6056 18.4515 10.695C18.6981 10.7843 18.9239 10.9232 19.1149 11.1031C19.3058 11.2829 19.458 11.4999 19.5621 11.7408C19.6661 11.9816 19.7197 12.2412 19.7197 12.5035C19.7197 12.7658 19.6661 13.0254 19.5621 13.2662C19.458 13.5071 19.3058 13.7241 19.1149 13.9039C18.9239 14.0838 18.6981 14.2227 18.4515 14.312C18.2048 14.4014 17.9425 14.4394 17.6806 14.4236H16.5695L16.5973 10.5834Z" fill="black"/>
</g>
<defs>
<clipPath id="clip0_653_180">
<rect width="25" height="25" fill="white"/>
</clipPath>
</defs>
</svg>
