<svg width="4321" height="4321" viewBox="0 0 4321 4321" fill="none" xmlns="http://www.w3.org/2000/svg">
<path d="M2160.33 0.00196621C3353.25 0.00196621 4320.34 967.064 4320.34 2160C4320.34 3352.94 3353.25 4320 2160.33 4320C967.405 4320 0.339844 3352.94 0.339844 2160C0.339844 967.064 967.405 0.00196621 2160.33 0.00196621Z" fill="url(#paint0_linear_131_6)"/>
<path d="M1661.92 956.602C1571.54 956.602 1463.16 977.731 1369.59 1012.99C1206.5 1075.44 1077.69 1204.85 1015.56 1368.75C980.471 1462.77 961.49 1562.09 959.426 1662.48C953.859 1791.57 952.34 1832.73 952.34 2161.02C952.34 2489.35 952.34 2530.51 959.426 2659.56C963.457 2758.69 983.971 2856.44 1020.12 2948.77C1082.24 3112.63 1211.05 3242.08 1374.14 3304.49C1467.72 3339.75 1566.56 3358.84 1666.47 3360.92C1794.93 3366.5 1835.9 3368 2162.62 3368C2489.34 3368 2530.3 3368 2658.77 3360.92C2758.68 3358.84 2857.52 3339.75 2951.09 3304.49C3114.18 3242.08 3243 3112.63 3305.14 2948.77C3340.23 2854.73 3359.19 2755.39 3361.25 2655C3366.84 2525.91 3368.34 2484.75 3368.34 2156.46C3368.34 1828.17 3368.34 1787.01 3361.25 1657.92C3359.19 1557.53 3340.23 1458.2 3305.14 1364.15C3243 1200.29 3114.18 1070.84 2951.09 1008.43C2857.52 973.171 2745.95 952.002 2658.77 952.002C2571.59 952.002 1752.3 956.602 1661.92 956.602ZM2644.6 1172.57C2720.97 1173.24 2796.63 1187.35 2868.15 1214.26C2972.83 1255.09 3055.59 1338.26 3096.25 1443.46C3123.01 1515.32 3137.05 1591.33 3137.72 1668.06C3143.79 1795.64 3144.8 1834.28 3144.8 2156.99C3144.8 2479.66 3144.8 2518.29 3137.72 2645.84C3137.05 2722.58 3123.01 2798.63 3096.25 2870.48C3055.59 2975.68 2972.83 3058.85 2868.15 3099.68C2796.63 3126.59 2720.97 3140.67 2644.6 3141.37C2517.66 3147.43 2479.73 3148.49 2158.07 3148.49C1836.41 3148.49 1798.48 3148.49 1671.53 3141.37C1595.17 3140.67 1519.51 3126.59 1447.98 3099.68C1344.17 3058.11 1262.38 2974.86 1222.42 2869.99C1195.65 2798.1 1181.61 2722.09 1180.94 2645.35C1174.88 2517.81 1173.86 2479.17 1173.86 2156.46C1173.86 1833.75 1173.86 1795.11 1180.94 1667.57C1181.61 1590.83 1195.65 1514.82 1222.42 1442.93C1263.08 1339.24 1344.78 1257.13 1447.98 1216.29C1519.5 1189.38 1595.2 1174.23 1671.53 1171.55" fill="white"/>
<path d="M2160.08 2563.07C1938.58 2563.07 1759.01 2382.65 1759.01 2160.08C1759.01 1937.52 1938.58 1757.09 2160.08 1757.09C2381.58 1757.09 2561.15 1937.52 2561.15 2160.08C2561.15 2382.65 2381.58 2563.07 2160.08 2563.07ZM2160.08 1539.04C1818.75 1539.04 1542.05 1817.1 1542.05 2160.08C1542.05 2503.07 1818.75 2781.12 2160.08 2781.12C2501.41 2781.12 2778.11 2503.07 2778.11 2160.08C2778.11 1817.1 2501.41 1539.04 2160.08 1539.04M2802.39 1369.32C2882.28 1369.32 2947.04 1434.38 2947.04 1514.66C2947.04 1594.94 2882.28 1659.99 2802.39 1659.99C2722.51 1659.99 2657.75 1594.94 2657.75 1514.66C2657.75 1434.38 2722.51 1369.32 2802.39 1369.32Z" fill="white"/>
<defs>
<linearGradient id="paint0_linear_131_6" x1="509.959" y1="507.864" x2="3908.32" y2="3906.2" gradientUnits="userSpaceOnUse">
<stop stop-color="#8549E4"/>
<stop offset="0.039" stop-color="#8549E4"/>
<stop offset="0.437" stop-color="#FF4164"/>
<stop offset="0.661" stop-color="#FF4164"/>
<stop offset="0.712" stop-color="#FF4164"/>
<stop offset="1" stop-color="#FFC12F"/>
</linearGradient>
</defs>
</svg>
